PathFileType	4	(X/Y/Z)	C:/Users/beibeiliu/ov580/test_trc/User3\out5_training_dense_left.trc
DataRate	CameraRate	NumFrames	NumMarkers	Units	OrigDataRate	OrigDataStartFrame	OrigNumFrames
120	120	16	19	mm	120	313	500
Frame#	Time	ThumbCMC			ThumbMCP			ThumbIP			ThumbTip			IndexMCP			IndexPIP			IndexTip			MiddleMCP			MiddlePIP			MiddleTip			RingMCP			RingPIP			RingTip			PinkyMCP			PinkyPIP			PinkyTip			BackHand1			BackHand2			BackHand3	
		X0	Y0	Z0	X1	Y1	Z1	X2	Y2	Z2	X3	Y3	Z3	X4	Y4	Z4	X5	Y5	Z5	X6	Y6	Z6	X7	Y7	Z7	X8	Y8	Z8	X9	Y9	Z9	X10	Y10	Z10	X11	Y11	Z11	X12	Y12	Z12	X13	Y13	Z13	X14	Y14	Z14	X15	Y15	Z15	X16	Y16	Z16	X17	Y17	Z17	X18	Y18	Z18	
312	2.6	-186.347	63.0529	-10.0048	-185.46	69.6424	-37.6376	-184.818	75.0862	-65.4042	-171.983	77.0107	-89.8956	-158.873	55.8502	-82.1806	-149.518	87.1113	-84.7517	-157.528	86.9709	-52.4426	-136.486	55.5515	-77.8341	-134.762	89.2625	-71.4326	-147.175	71.9894	-37.5308	-120.419	56.008	-68.0459	-118.369	84.2678	-59.4723	-135.653	74.1128	-31.9752	-107.747	53.133	-56.9531	-109.256	78.3528	-48.2146	-119.346	73.4256	-20.938	-137.522	20.2867	-25.0679	-142.424	20.4328	8.36456	-171.823	31.3392	-12.5305	
313	2.60833	-198.726	55.7698	-8.34003	-199.857	61.0032	-36.2168	-199.46	62.9918	-71.8066	-191.542	67.3307	-93.5689	-173.52	46.6214	-82.4197	-163.972	76.984	-91.1173	-174.455	81.0141	-58.3238	-154.293	51.3286	-83.0429	-146.393	82.6083	-76.1709	-161.307	67.5933	-41.4443	-134.344	53.2346	-73.1957	-130.566	79.9979	-62.2161	-148.886	69.6524	-35.3288	-120.864	48.5896	-57.6038	-123.226	77.3394	-55.9366	-135.109	71.2591	-28.2337	-148.739	15.5972	-28.8421	-150.126	14.8596	6.12393	-181.501	23.2377	-15.772	
314	2.61667	-205.687	49.0535	-7.97921	-209.63	53.9053	-39.3783	-213.17	57.4661	-68.2675	-197.655	59.8796	-89.9145	-183.286	38.545	-82.8657	-175.299	68.884	-94.3101	-185.553	75.7667	-62.3036	-162.384	43.6591	-82.7242	-159.741	75.8826	-80.7331	-171.113	62.908	-45.1679	-142.523	43.7381	-73.381	-145.251	73.6854	-70.8317	-157.739	67.9837	-39.9677	-132.465	43.7415	-63.7384	-130.781	70.0616	-60.9283	-142.841	68.7418	-30.3585	-154.16	11.4942	-30.2286	-156.473	11.6207	5.0188	-186.25	17.4247	-17.0695	
315	2.625	-213.372	47.1768	-6.9577	-219.08	51.4016	-37.2767	-217.932	52.9921	-66.4252	-194.704	51.5209	-88.2333	-196.737	35.7274	-88.2247	-190.928	64.7872	-98.6447	-193.075	75.4924	-66.7611	-175.748	41.2292	-87.6209	-170.63	72.0311	-81.1358	-176.146	57.4634	-45.6721	-156.913	37.9971	-76.8	-153.031	67.8059	-70.4856	-162.591	61.6937	-40.1678	-142.798	36.8984	-65.7652	-143.581	64.4908	-61.1925	-152.628	57.9116	-31.2971	-169.129	6.59547	-28.6865	-165.054	6.31951	2.4892	-196.717	13.5995	-14.6653	
316	2.63333	-216.99	48.1076	-5.89247	-225.142	50.1255	-36.2385	-225.624	50.8678	-69.4479	-200.819	49.0855	-78.7132	-213.519	30.6262	-80.6623	-201.55	56.1722	-100.031	-199.297	74.5634	-67.2088	-190.906	33.3564	-85.6759	-177.358	61.9491	-84.4326	-183.544	52.3861	-45.4974	-167.502	32.0186	-78.9829	-160.223	59.5315	-73.5533	-167.481	55.6497	-40.8321	-151.463	29.2732	-70.0907	-149.468	55.3142	-62.2983	-159.544	52.1113	-35.2172	-180.713	1.68006	-26.1028	-178.298	2.69777	4.86909	-210.875	13.5087	-12.4334	
317	2.64167	-224.038	54.4631	-2.56463	-232.285	58.9464	-30.8837	-233.234	55.8851	-64.2596	-208.883	45.0763	-79.6674	-227.176	30.8795	-79.7261	-215.328	53.5081	-98.0302	-198.966	68.8346	-68.7654	-204.341	24.7217	-82.0598	-191.971	57.1748	-85.4773	-187.758	51.2924	-48.8877	-183.241	23.1305	-77.592	-172.902	49.6627	-76.5257	-176.733	48.8567	-41.6686	-169.102	16.0353	-67.9554	-160.557	43.8955	-65.0894	-167.078	42.4492	-33.2021	-195.197	-3.60915	-22.0492	-189.157	2.6344	7.10469	-219.582	18.5627	-7.52925	
318	2.65	-223.845	61.253	0.872363	-234.593	66.4074	-26.4517	-240.452	60.4532	-59.6892	-222.949	44.5865	-72.68	-244.992	35.5919	-73.0835	-231.524	55.8124	-93.9061	-206.299	65.8647	-73.0904	-225.698	27.5503	-80.2474	-201.588	44.6508	-86.8847	-197.508	46.6709	-47.3363	-207.933	15.5209	-70.8784	-184.931	38.0777	-76.3279	-186.579	40.716	-40.1389	-189.659	4.25508	-65.1216	-176.929	29.1424	-67.5216	-174.57	31.5272	-39.192	-213.632	-2.18473	-15.0945	-202.245	3.35508	12.6287	-230.683	24.5817	2.35622	
319	2.65833	-221.59	66.6369	0.362739	-233.587	74.5253	-24.8409	-245.785	67.8461	-56.2127	-235.268	45.2624	-67.7776	-260.431	45.4697	-64.0989	-244.32	51.974	-89.1562	-213.982	57.548	-72.028	-242.949	24.5746	-73.7314	-215.891	41.0043	-83.3762	-205.51	41.9978	-47.014	-227.898	13.3158	-66.894	-203.177	25.6487	-74.8429	-194.555	32.6161	-41.3354	-217.021	-0.0159686	-58.4234	-193.208	12.1805	-67.5716	-186.886	21.5858	-37.3306	-234.085	2.7149	-11.5861	-217.208	7.52085	18.5948	-237.603	32.6849	8.05552	
320	2.66667	-215.566	65.83	2.87295	-234.367	75.0932	-25.2397	-248.944	70.1508	-51.9283	-248.89	44.1957	-65.4628	-267.475	49.0603	-53.7483	-254.278	55.2224	-85.4335	-221.404	57.8599	-69.1418	-258.388	28.3331	-62.1307	-230.307	36.4161	-80.7333	-215.387	33.9328	-45.0321	-245.532	13.2683	-61.8924	-216.785	17.5354	-70.8108	-206.892	26.1941	-36.7017	-238.5	-4.18871	-51.5799	-216.149	7.97071	-65.4351	-200.764	14.6882	-35.8083	-248.898	6.98679	-1.55095	-228.501	10.5405	24.4419	-238.887	42.6128	13.5614	
321	2.675	-216.369	66.2729	-0.633646	-227.51	82.3829	-25.6748	-245.662	80.324	-49.897	-255.912	56.9062	-67.4973	-271.419	56.778	-55.677	-259.125	59.3221	-82.6425	-225.199	53.6509	-67.6314	-266.756	38.8217	-62.0885	-242.709	34.699	-79.0014	-221.769	35.8945	-43.6961	-260.233	20.2345	-54.378	-231.168	18.652	-69.5294	-215.455	24.4321	-40.1793	-255.025	3.10749	-44.267	-230.511	3.90906	-62.2807	-212.644	12.4364	-37.066	-256.265	18.3783	3.52588	-235.442	18.9494	28.4747	-242.048	49.5258	14.8477	
322	2.68333	-207.208	66.4173	-2.17399	-222.451	81.4728	-29.5351	-236.952	88.3711	-54.0723	-254.827	71.4766	-71.6145	-270.434	63.4129	-57.6717	-257.83	57.5051	-83.2376	-228.654	51.3016	-67.3675	-268.387	48.0144	-61.3759	-246.076	34.6508	-78.6207	-223.238	38.052	-41.9908	-267.106	24.0694	-53.8102	-241.841	17.5417	-69.3667	-222.56	22.3466	-44.0023	-265.068	10.4898	-46.3831	-241.013	3.38948	-60.2944	-223.904	10.9701	-40.4359	-259.048	30.8486	4.01073	-239.749	24.0545	25.9909	-242.499	55.524	9.06056	
323	2.69167	-205.62	68.3305	-7.36063	-213.259	79.8984	-32.206	-227.599	85.4879	-56.3527	-243.72	82.042	-76.8683	-264.548	71.6041	-59.6601	-249.713	64.5723	-86.4119	-223.232	54.0778	-61.9671	-267.182	54.1841	-62.7272	-243.326	40.0702	-80.0379	-224.642	38.5857	-41.9215	-269.408	35.3728	-58.6829	-247.302	18.6105	-69.3491	-227.322	21.4336	-40.3031	-271.32	18.6754	-45.9539	-249.396	8.85722	-61.7266	-228.897	10.6722	-37.0554	-264.86	36.5984	5.82102	-245.568	31.1156	23.4782	-237.52	65.5208	7.04526	
324	2.7	-201.862	65.2919	-10.6015	-208.242	75.8191	-36.0132	-221.252	86.2546	-63.7014	-232.991	84.3217	-82.3297	-257.155	75.9924	-62.1808	-242.685	60.3005	-87.3553	-219.486	52.3029	-63.4732	-265.42	59.5286	-63.5445	-246.299	39.2797	-82.0686	-226.685	34.7335	-47.8955	-267.897	42.3559	-60.2709	-248.442	24.0175	-71.676	-229.984	23.4521	-40.088	-274.568	27.12	-45.8873	-253.386	10.7413	-61.4444	-234.194	15.5914	-38.6223	-266.958	46.1107	1.65977	-247.452	35.7696	23.6947	-235.478	66.1137	7.10773	
325	2.70833	-196.531	63.9257	-14.3492	-198.452	76.3987	-43.3216	-213.586	84.13	-70.3803	-225.229	81.6147	-89.0119	-247.853	77.8856	-67.7491	-233.695	59.3825	-90.8628	-215.173	48.3411	-66.3767	-259.066	61.8188	-71.4733	-242.298	38.956	-83.9505	-223.004	36.7766	-48.9783	-267.746	45.1394	-61.3875	-246.277	21.1802	-70.4721	-229.464	24.5284	-42.754	-274.341	33.0182	-51.0686	-252.218	15.2508	-63.2913	-236.589	16.8358	-37.6187	-263.172	55.8848	-4.97647	-248.353	42.9088	17.3839	-228.161	70.4478	-0.514724	
326	2.71667	-193.335	57.5065	-18.1691	-191.027	70.1934	-49.1064	-200.451	73.9056	-73.7281	-215.848	74.2816	-96.2547	-238.834	76.7759	-75.6266	-224.308	51.3955	-95.4041	-207.582	44.9111	-67.6436	-251.584	62.3667	-75.4926	-235.977	33.4271	-84.9937	-217.888	33.1879	-52.5616	-260.768	48.1318	-67.4507	-244.774	22.4119	-73.3444	-226.656	25.3089	-45.2435	-269.06	34.2544	-58.3584	-250.63	13.7226	-63.0563	-233.87	15.176	-39.8362	-260.65	60.7005	-10.486	-245.26	50.7117	14.6915	-224.139	71.4139	-4.95102	
327	2.725	-186.523	54.2161	-23.7858	-180.65	60.6258	-54.6958	-194.467	63.6027	-83.7375	-205.257	61.2548	-102.894	-229.706	71.4361	-81.5719	-220.966	42.4194	-97.8916	-204.304	34.6944	-71.8302	-243.353	56.4541	-83.151	-230.93	27.0291	-86.8435	-215.694	28.116	-52.0611	-255.684	41.9751	-71.9595	-241.069	16.707	-74.2926	-223.245	22.7025	-43.1378	-263.672	34.0031	-60.0064	-250.196	10.4785	-63.1594	-233.032	15.7519	-35.8348	-251.899	62.3284	-14.6625	-237.191	52.2267	11.9425	-216.51	71.5844	-11.7874	
